<svg xmlns="http://www.w3.org/2000/svg" xmlns:xlink="http://www.w3.org/1999/xlink" viewBox="0 0 35.88 47.33"><defs><style>.cls-1,.cls-4{fill:#754c29;}.cls-2{fill:none;}.cls-2,.cls-3,.cls-4{stroke:#231f20;stroke-miterlimit:10;}.cls-3{fill:#fff;}</style><symbol id="coffee-drank" data-name="coffee-drank" viewBox="0 0 35.88 47.33"><path class="cls-1" d="M25.13,29.73V39c0,.29.07.58.07.88a18.6,18.6,0,0,1-.07,1.88A5.47,5.47,0,0,1,21.91,46c-.31.14-.92.57-1.18.65a6.83,6.83,0,0,1-1.75.23c-6,0-10.13-.06-11.9,0-.24,0-1-.47-1.74-.69A8,8,0,0,1,2.2,44.66a5.49,5.49,0,0,1-1.24-2,14.19,14.19,0,0,1-.3-2.83c-.05-1.28,0-2.1,0-2.32,0-2.26,0-3.94,0-4.5,0-.78,0-1.9,0-3.33"/><path class="cls-2" d="M34,23c-3.08-4.17-6.44-1.42-8.38,1-.1-1.07.46-3.57-1.32-3.52H1.82A1.32,1.32,0,0,0,.5,21.75v18.5a6.58,6.58,0,0,0,6.58,6.58H19a6.58,6.58,0,0,0,6.31-4.71C29.22,41.63,39,30.33,34,23ZM26.26,38.86l-.69,0v-11l4.11-3.75,2.43,4.34Z"/><path class="cls-3" d="M6.72,17.29"/><path class="cls-3" d="M7.92.36a5.7,5.7,0,0,0-2,4.07C6,6.84,8.39,7.57,8.3,9.76,8.21,12.13,5.31,13,5.49,15,5.62,16.31,7,17.26,7.92,17.8"/><path class="cls-3" d="M11.76.36a5.73,5.73,0,0,0-2,4.07c.09,2.41,2.5,3.14,2.42,5.33-.09,2.37-3,3.19-2.81,5.23.12,1.32,1.47,2.27,2.42,2.81"/><path class="cls-3" d="M15.81.36a5.7,5.7,0,0,0-2,4.07c.08,2.41,2.5,3.14,2.42,5.33-.09,2.37-3,3.19-2.81,5.23.12,1.32,1.46,2.27,2.42,2.81"/><path class="cls-3" d="M20,.36a5.7,5.7,0,0,0-2,4.07c.09,2.41,2.51,3.14,2.43,5.33-.1,2.37-3,3.19-2.81,5.23C17.65,16.31,19,17.26,20,17.8"/><line class="cls-4" x1="0.25" y1="29.31" x2="25.47" y2="29.31"/><path class="cls-2" d="M22.57,31.39"/></symbol></defs><g id="Layer_2" data-name="Layer 2"><g id="drank-coffee"><use width="35.88" height="47.33" xlink:href="#coffee-drank"/></g></g></svg>