<svg xmlns="http://www.w3.org/2000/svg" viewBox="0 0 24.33 58.91"><defs><style>.cls-1{fill:#754d29;}.cls-2,.cls-4{fill:none;}.cls-2,.cls-3{stroke:#231f20;stroke-miterlimit:10;}.cls-3{fill:#fff;}</style></defs><g id="Layer_2" data-name="Layer 2"><g id="Layer_5" data-name="Layer 5"><path class="cls-1" d="M22.47,33.81c0-3.85-3.38-3.82-6.44-5-2.82-1.06-5.47-.26-8.48.42-5,1.13-6.47.87-5.86,3.49.58,2.46.2,6.74.83,9.15.34,1.31,0,1.4.33,2.55,2.81,2.72,9,1.87,10.05,2.58.79.56,1.47.1,2.4-.14,2.66-.7,1.16-1.18,2.66-.7,2.58-.16,3.61-1.17,3.39-2.89.21-.78.46-.3.22-1.16,0,0,.56-3.54.55-3.59A17.38,17.38,0,0,0,22.47,33.81Z"/><path class="cls-2" d="M1.69,31.08s12.47-6.84,21.13,1"/><path class="cls-2" d="M21.57,45c-5.86,2.58-13.25,3.32-18.72-.57"/><path class="cls-2" d="M.55,20H23.79L20.47,57c-8.21,3.27-16.6,0-16.6,0Z"/><path class="cls-3" d="M7.15.36a5.7,5.7,0,0,0-2,4.07c.08,2.41,2.5,3.14,2.42,5.33C7.45,12.13,4.54,13,4.73,15c.12,1.32,1.46,2.27,2.42,2.81"/><path class="cls-3" d="M11,.36A5.7,5.7,0,0,0,9,4.43c.09,2.41,2.51,3.14,2.42,5.33-.09,2.37-3,3.19-2.81,5.23C8.69,16.31,10,17.26,11,17.8"/><path class="cls-3" d="M15,.36a5.73,5.73,0,0,0-2,4.07c.09,2.41,2.5,3.14,2.42,5.33-.09,2.37-3,3.19-2.81,5.23.12,1.32,1.47,2.27,2.42,2.81"/><path class="cls-3" d="M19.18.36a5.7,5.7,0,0,0-2,4.07c.09,2.41,2.5,3.14,2.42,5.33-.09,2.37-3,3.19-2.81,5.23.12,1.32,1.47,2.27,2.42,2.81"/><line class="cls-4" x1="22.82" y1="32.1" x2="21.57" y2="45.03"/></g></g></svg>